<svg xmlns="http://www.w3.org/2000/svg" viewBox="0 0 200 48" fill="none">
  <g transform="translate(4, 4)">
    <path d="M4 8C4 5.79 5.79 4 8 4H18V36H8C5.79 36 4 34.21 4 32V8Z" fill="white" opacity="0.9"/>
    <path d="M18 4H28C30.21 4 32 5.79 32 8V32C32 34.21 30.21 36 28 36H18V4Z" fill="white" opacity="0.7"/>
    <polygon points="18,2 6,10 18,18 30,10" fill="#14B8A6"/>
    <polygon points="15,14 15,26 24,20" fill="#2563EB" opacity="0.95"/>
    <path d="M33 6L35 10L39 8L37 12L41 14L37 16L39 20L35 18L33 22L31 18L27 20L29 16L25 14L29 12L27 8L31 10Z" fill="#F59E0B" opacity="0.85"/>
  </g>
  <text x="52" y="22" font-family="Inter, system-ui, sans-serif" font-weight="700" font-size="20" fill="white">Skill</text>
  <text x="94" y="22" font-family="Inter, system-ui, sans-serif" font-weight="700" font-size="20" fill="#93C5FD">Forge</text>
  <text x="52" y="38" font-family="Inter, system-ui, sans-serif" font-weight="400" font-size="9" fill="#94A3B8" letter-spacing="0.5">LEARN · CREATE · GROW</text>
</svg>
